# xmcd CD database file
#
# Track frame offsets:
#	150
#	17065
#	34705
#	47210
#	64458
#	78038
#	90643
#	108913
#	121753
#	131750
#	148423
#	160453
#	173608
#
# Disc length: 2454 seconds
#
# Revision: 0
# Processed by: cddbd v1.4PL0 Copyright (c) Steve Scherf et al.
# Submitted via: Feurio! 1.63 - http://www.feurio.com
#
DISCID=ad09940d
DTITLE=Various Artist - Thats Country
DYEAR=1900
DGENRE=
TTITLE0=Nancy Wood - We Never Give Up
TTITLE1=Tom Astor - Lucille
TTITLE2=Ralf Paulsen - Lilly, Ann und Susan
TTITLE3=Samy's Saloon - Intercitylinie Nr.4
TTITLE4=Nancy Wood - Love In Your Eyes
TTITLE5=Carmen - Alpenvorland Cowgirl
TTITLE6=Nancy Wood - Blue Bayou
TTITLE7=Samy's Saloon - Hey Boss Ich brauch mehr Geld
TTITLE8=Tom Astor - Adios Amigo
TTITLE9=Ralf Paulsen - Mein guter alter Freund
TTITLE10=Samy's Saloon - Hallo Guten Morgen Deutschland
TTITLE11=Tom Astor - Mann Oh Mann
TTITLE12=Nancy Wood - Schopping for Love
EXTD=
EXTT0=
EXTT1=
EXTT2=
EXTT3=
EXTT4=
EXTT5=
EXTT6=
EXTT7=
EXTT8=
EXTT9=
EXTT10=
EXTT11=
EXTT12=
PLAYORDER=
